<?xml version="1.0" standalone="no"?>
<!DOCTYPE svg PUBLIC "-//W3C//DTD SVG 20010904//EN"
 "http://www.w3.org/TR/2001/REC-SVG-20010904/DTD/svg10.dtd">
<svg version="1.0" xmlns="http://www.w3.org/2000/svg"
 width="128.000000pt" height="128.000000pt" viewBox="0 0 128.000000 128.000000"
 preserveAspectRatio="xMidYMid meet">

<g transform="translate(0.000000,128.000000) scale(0.100000,-0.100000)"
fill="#ffffff" stroke="none">
<path d="M20 800 c-25 -25 -26 -61 -1 -91 16 -20 28 -23 77 -24 48 0 59 3 62
18 3 14 -4 17 -46 17 -52 0 -79 17 -68 45 8 22 901 23 910 0 3 -8 -2 -21 -10
-30 -13 -13 -66 -15 -375 -15 -310 0 -359 -2 -359 -15 0 -8 10 -17 23 -20 12
-3 244 -4 515 -3 l494 3 19 24 c41 50 9 111 -57 111 -28 0 -35 -3 -32 -17 2
-11 15 -20 33 -23 32 -6 47 -37 23 -51 -7 -5 -62 -9 -123 -9 l-110 0 0 30 c0
29 1 30 50 30 54 0 82 11 71 29 -5 8 -160 11 -542 11 -521 0 -534 0 -554 -20z"/>
<path d="M7 623 c-4 -3 -7 -42 -7 -85 0 -70 2 -79 18 -76 10 2 18 14 20 31 3
20 9 27 26 27 12 0 27 5 34 12 20 20 14 65 -10 82 -23 16 -69 21 -81 9z m61
-50 c-5 -25 -28 -28 -28 -4 0 12 6 21 16 21 9 0 14 -7 12 -17z"/>
<path d="M154 617 c-3 -8 -4 -45 -2 -83 2 -56 6 -69 21 -72 12 -3 17 3 17 19
l0 22 23 -21 c40 -38 67 -20 30 20 -15 17 -15 19 0 36 23 26 21 58 -5 76 -28
20 -77 21 -84 3z m66 -42 c0 -8 -7 -15 -15 -15 -8 0 -15 7 -15 15 0 8 7 15 15
15 8 0 15 -7 15 -15z"/>
<path d="M329 601 c-37 -38 -39 -82 -4 -116 51 -52 145 -15 145 57 0 38 -48
88 -85 88 -16 0 -38 -12 -56 -29z m89 -23 c7 -7 12 -21 12 -33 0 -12 -5 -26
-12 -33 -7 -7 -21 -12 -33 -12 -40 0 -61 50 -33 78 7 7 21 12 33 12 12 0 26
-5 33 -12z"/>
<path d="M539 601 c-32 -33 -36 -58 -14 -100 16 -32 33 -41 75 -41 33 0 70 40
70 76 0 21 -5 24 -35 24 -37 0 -50 -25 -20 -36 21 -8 8 -24 -19 -24 -28 0 -46
18 -46 46 0 32 24 47 65 40 27 -5 35 -4 35 8 0 18 -30 36 -60 36 -12 0 -35
-13 -51 -29z"/>
<path d="M714 617 c-3 -8 -4 -45 -2 -82 3 -70 20 -97 36 -55 l8 21 18 -20 c21
-23 46 -28 46 -9 0 6 -7 20 -17 30 -15 17 -15 19 0 36 23 26 21 58 -5 76 -28
20 -77 21 -84 3z m66 -42 c0 -8 -7 -15 -15 -15 -8 0 -15 7 -15 15 0 8 7 15 15
15 8 0 15 -7 15 -15z"/>
<path d="M864 617 c-3 -8 -4 -45 -2 -83 l3 -69 43 -3 c38 -3 43 -1 40 15 -2
10 -13 19 -26 21 -12 2 -22 7 -22 12 0 5 10 10 22 12 34 5 37 38 4 38 -16 0
-26 6 -26 15 0 9 9 15 25 15 18 0 25 5 25 20 0 17 -7 20 -40 20 -25 0 -43 -5
-46 -13z"/>
<path d="M1022 614 c-33 -23 -25 -55 20 -79 49 -26 48 -39 0 -31 -47 7 -58 -1
-35 -26 24 -27 79 -24 98 6 21 31 6 63 -36 78 -41 14 -37 32 6 24 27 -5 35 -4
35 8 0 16 -29 36 -52 36 -8 0 -24 -7 -36 -16z"/>
<path d="M1192 623 c-7 -2 -17 -13 -22 -24 -14 -26 1 -53 40 -69 44 -18 38
-34 -10 -26 -31 5 -40 3 -40 -9 0 -18 31 -35 63 -35 27 0 57 28 57 53 0 18
-46 57 -66 57 -8 0 -14 5 -14 11 0 7 12 9 34 5 42 -8 54 7 24 28 -23 16 -42
19 -66 9z"/>
</g>
</svg>
